<svg xmlns="http://www.w3.org/2000/svg" xmlns:xlink="http://www.w3.org/1999/xlink" width="1920" zoomAndPan="magnify" viewBox="0 0 1440 809.999993" height="1080" preserveAspectRatio="xMidYMid meet" version="1.0"><path fill="#f4f4f4" d="M 1317.085938 94.011719 C 1313.195312 74.734375 1308.121094 55.625 1302.371094 36.683594 C 1299.15625 26.199219 1286.472656 25.015625 1280.386719 30.257812 C 1280.386719 30.257812 1280.21875 30.257812 1280.21875 30.429688 C 1221.027344 71.519531 1132.582031 53.089844 1078.972656 11.488281 C 1072.714844 6.585938 1062.566406 9.964844 1060.03125 17.40625 C 1047.683594 53.933594 1022.488281 85.558594 990.015625 106.019531 C 973.441406 116.503906 955.007812 124.113281 935.898438 128.339844 C 929.304688 129.863281 914.929688 128.847656 910.53125 134.261719 C 904.613281 141.699219 908.335938 155.230469 910.53125 163.347656 C 928.121094 224.730469 918.648438 288.148438 874.34375 336.34375 C 845.421875 367.964844 806.1875 388.425781 763.910156 394.683594 C 681.71875 407.027344 594.117188 365.089844 557.589844 289.332031 C 529.007812 230.144531 533.238281 159.457031 569.765625 104.835938 C 576.191406 95.195312 567.398438 84.878906 558.4375 85.050781 C 557.25 84.542969 555.898438 84.035156 554.546875 84.035156 C 512.945312 79.46875 476.078125 47 459.671875 9.628906 C 456.628906 2.863281 446.3125 0.160156 440.902344 5.570312 C 417.730469 28.566406 389.488281 46.324219 358.371094 56.640625 C 333.003906 64.925781 299.015625 68.984375 278.382812 48.183594 C 272.96875 42.773438 266.375 42.605469 260.285156 46.664062 C 242.191406 58.667969 221.222656 65.265625 199.742188 67.460938 C 189.425781 68.476562 178.941406 68.140625 168.625 66.957031 C 160.507812 65.941406 152.558594 63.574219 144.441406 63.066406 C 138.015625 60.53125 130.574219 62.390625 128.714844 70.84375 C 89.648438 236.0625 116.199219 413.457031 216.824219 552.292969 C 291.066406 654.601562 400.144531 728.5 520.046875 766.886719 C 639.949219 805.277344 771.6875 809.84375 893.453125 777.203125 C 954.164062 760.96875 1012.339844 735.941406 1064.597656 700.9375 C 1090.976562 683.179688 1114.484375 662.886719 1138.160156 641.75 C 1150 631.097656 1163.527344 622.132812 1174.691406 610.632812 C 1189.570312 595.414062 1202.933594 578.164062 1215.617188 561.085938 C 1313.871094 427.320312 1350.398438 256.015625 1317.085938 94.011719 Z M 205.664062 92.320312 C 227.648438 90.460938 248.449219 83.019531 267.390625 72.199219 C 319.984375 112.785156 398.621094 74.058594 445.128906 34.488281 C 465.929688 71.183594 500.089844 94.011719 540.679688 104.667969 C 486.054688 203.085938 519.707031 331.609375 618.472656 388.597656 C 701.675781 436.621094 812.109375 428.675781 881.613281 359.847656 C 921.863281 319.9375 946.046875 262.105469 941.988281 205.117188 C 941.820312 201.902344 935.054688 153.707031 933.195312 154.046875 C 996.273438 143.5625 1051.914062 99.929688 1077.617188 41.25 C 1108.058594 61.375 1143.402344 73.550781 1179.933594 76.085938 C 1190.753906 76.933594 1202.761719 77.101562 1215.109375 76.257812 C 1245.210938 136.457031 1264.828125 203.085938 1259.246094 271.066406 C 1254.511719 328.394531 1230.835938 386.058594 1188.726562 426.308594 C 1167.417969 446.601562 1143.066406 459.113281 1116.515625 471.121094 C 1088.777344 483.804688 1065.949219 499.867188 1049.882812 526.25 C 1034.15625 552.121094 1025.191406 581.546875 1009.464844 607.421875 C 994.582031 632.28125 975.472656 654.433594 952.980469 672.527344 C 901.738281 713.789062 831.554688 731.375 767.628906 712.4375 C 736.34375 703.136719 710.640625 684.027344 682.398438 668.300781 C 653.816406 652.402344 624.050781 645.300781 591.582031 642.933594 C 523.765625 638.027344 451.894531 649.699219 390.335938 613.847656 C 365.136719 599.132812 343.492188 578.671875 327.933594 553.984375 C 310.175781 526.082031 303.578125 494.964844 298.84375 462.835938 C 293.769531 429.519531 288.019531 399.25 268.402344 371.007812 C 250.648438 345.472656 227.476562 324.503906 212.257812 297.109375 C 176.742188 233.863281 175.222656 157.597656 205.664062 92.320312 Z M 1230.328125 494.289062 C 1209.359375 530.308594 1184.328125 562.609375 1157.269531 594.0625 C 1146.953125 605.898438 1138.160156 619.257812 1126.492188 629.742188 C 1115.160156 639.890625 1102.648438 649.019531 1090.46875 657.984375 C 1042.273438 693.328125 987.480469 720.554688 930.996094 739.664062 C 817.6875 778.21875 692.375 782.277344 576.191406 754.542969 C 459.503906 726.640625 350.253906 666.101562 270.265625 575.796875 C 165.582031 457.761719 122.628906 298.292969 142.582031 142.714844 C 144.949219 124.453125 148.164062 106.1875 152.054688 88.09375 C 163.046875 91.8125 175.558594 92.996094 187.230469 92.996094 C 162.03125 148.125 159.496094 213.910156 179.449219 270.898438 C 189.933594 300.832031 207.183594 326.703125 227.476562 350.714844 C 246.757812 373.714844 265.867188 396.207031 272.96875 426.136719 C 281.085938 460.636719 281.933594 496.316406 294.785156 529.632812 C 305.441406 557.367188 322.519531 582.902344 344.167969 603.363281 C 395.746094 652.234375 462.039062 661.195312 530.363281 661.195312 C 566.890625 661.195312 605.617188 659.503906 640.792969 670.328125 C 672.757812 680.136719 699.140625 702.121094 728.734375 716.664062 C 788.261719 745.75 860.980469 743.042969 920.003906 714.296875 C 975.8125 687.238281 1017.414062 639.214844 1043.457031 583.746094 C 1057.492188 553.8125 1069.332031 521.175781 1098.25 502.238281 C 1125.308594 484.480469 1156.933594 476.195312 1182.976562 456.410156 C 1235.0625 417.007812 1266.6875 354.4375 1276.328125 290.683594 C 1287.660156 215.9375 1267.027344 140.007812 1233.035156 73.550781 C 1250.960938 70.675781 1268.210938 64.925781 1281.738281 54.78125 C 1323.511719 202.070312 1307.277344 361.539062 1230.328125 494.289062 Z M 1230.328125 494.289062 " fill-opacity="1" fill-rule="nonzero"/><path fill="#f4f4f4" d="M 1054.28125 313.007812 C 1047.007812 325.351562 1064.597656 338.035156 1072.714844 325.859375 C 1078.464844 317.066406 1083.707031 308.101562 1088.78125 298.96875 C 1093.515625 290.515625 1098.925781 282.226562 1100.449219 272.589844 C 1101.800781 264.640625 1091.148438 259.566406 1085.398438 264.640625 C 1078.292969 270.898438 1074.40625 279.691406 1069.5 287.640625 C 1064.425781 296.09375 1059.351562 304.550781 1054.28125 313.007812 Z M 1054.28125 313.007812 " fill-opacity="1" fill-rule="nonzero"/><path fill="#f4f4f4" d="M 1003.882812 171.292969 C 1014.03125 176.875 1025.53125 178.902344 1036.859375 181.441406 C 1047.855469 183.808594 1059.015625 187.699219 1069.839844 183.808594 C 1074.234375 182.117188 1075.925781 175.015625 1072.375 171.632812 C 1064.425781 164.023438 1054.28125 163.007812 1043.792969 160.472656 C 1032.972656 157.765625 1021.472656 153.875 1010.140625 153.875 C 1002.023438 154.046875 994.582031 166.222656 1003.882812 171.292969 Z M 1003.882812 171.292969 " fill-opacity="1" fill-rule="nonzero"/><path fill="#f4f4f4" d="M 1138.328125 127.496094 C 1136.300781 113.460938 1132.074219 98.917969 1123.449219 87.585938 C 1117.867188 80.144531 1108.398438 87.078125 1108.734375 94.519531 C 1109.242188 106.863281 1112.625 119.546875 1115.667969 131.554688 C 1119.050781 145.929688 1140.359375 142.378906 1138.328125 127.496094 Z M 1138.328125 127.496094 " fill-opacity="1" fill-rule="nonzero"/><path fill="#f4f4f4" d="M 1205.636719 240.289062 C 1213.078125 233.355469 1213.585938 223.71875 1215.445312 214.246094 C 1217.476562 204.4375 1220.519531 194.632812 1219.335938 184.652344 C 1218.152344 175.859375 1205.300781 172.984375 1200.5625 180.425781 C 1195.320312 188.882812 1194.136719 199.027344 1191.769531 208.667969 C 1189.570312 218.304688 1186.019531 227.269531 1189.910156 236.738281 C 1192.277344 242.828125 1200.902344 244.519531 1205.636719 240.289062 Z M 1205.636719 240.289062 " fill-opacity="1" fill-rule="nonzero"/><path fill="#f4f4f4" d="M 961.605469 427.320312 C 978.855469 414.976562 995.257812 400.773438 1006.082031 382.507812 C 1010.308594 375.40625 1002.023438 367.121094 995.257812 372.699219 C 979.363281 385.382812 964.816406 399.757812 948.414062 411.933594 C 937.929688 419.710938 951.121094 434.761719 961.605469 427.320312 Z M 961.605469 427.320312 " fill-opacity="1" fill-rule="nonzero"/><path fill="#f4f4f4" d="M 969.890625 283.414062 C 972.9375 292.375 974.796875 303.027344 982.914062 308.777344 C 987.308594 311.820312 995.429688 310.300781 996.78125 304.382812 C 999.148438 294.402344 994.582031 286.792969 990.863281 277.492188 C 986.804688 267.683594 981.898438 258.722656 977.164062 249.421875 C 973.273438 241.644531 959.574219 245.195312 961.941406 254.324219 C 964.648438 264.132812 966.679688 273.773438 969.890625 283.414062 Z M 969.890625 283.414062 " fill-opacity="1" fill-rule="nonzero"/><path fill="#f4f4f4" d="M 1100.617188 404.492188 C 1119.558594 409.566406 1139.515625 414.808594 1159.132812 414.976562 C 1168.601562 415.144531 1171.476562 402.972656 1162.851562 399.082031 C 1145.09375 390.796875 1124.800781 386.90625 1105.523438 383.523438 C 1093.515625 381.324219 1088.78125 401.28125 1100.617188 404.492188 Z M 1100.617188 404.492188 " fill-opacity="1" fill-rule="nonzero"/><path fill="#f4f4f4" d="M 832.230469 484.480469 C 841.027344 480.929688 846.945312 470.445312 852.863281 463.34375 C 859.121094 455.902344 865.886719 448.96875 867.746094 439.160156 C 869.269531 431.550781 860.644531 428.167969 854.726562 430.027344 C 845.59375 433.070312 839.167969 442.371094 833.078125 449.476562 C 826.652344 456.914062 818.871094 463.847656 817.011719 473.828125 C 815.660156 482.28125 825.46875 487.1875 832.230469 484.480469 Z M 832.230469 484.480469 " fill-opacity="1" fill-rule="nonzero"/><path fill="#f4f4f4" d="M 912.5625 580.53125 C 914.082031 596.261719 937.421875 591.695312 936.40625 576.304688 C 935.730469 567.34375 935.054688 558.550781 934.039062 549.585938 C 933.195312 541.132812 932.855469 532.335938 928.121094 525.066406 C 924.230469 518.808594 915.269531 518.300781 912.054688 525.742188 C 908.503906 534.199219 909.6875 542.992188 910.195312 551.953125 C 910.871094 561.421875 911.714844 570.894531 912.5625 580.53125 Z M 912.5625 580.53125 " fill-opacity="1" fill-rule="nonzero"/><path fill="#f4f4f4" d="M 745.136719 606.40625 C 752.917969 610.125 760.527344 614.183594 768.136719 618.074219 C 775.578125 621.796875 782.851562 627.207031 790.800781 629.742188 C 801.117188 632.957031 811.429688 620.609375 803.484375 611.648438 C 791.304688 598.121094 769.828125 590.679688 752.75 585.773438 C 739.21875 581.886719 732.453125 600.488281 745.136719 606.40625 Z M 745.136719 606.40625 " fill-opacity="1" fill-rule="nonzero"/><path fill="#f4f4f4" d="M 681.042969 538.933594 C 692.035156 537.242188 695.925781 525.234375 700.832031 516.441406 C 706.074219 507.140625 711.144531 498.007812 713.515625 487.523438 C 715.375 479.746094 707.59375 473.320312 700.660156 478.5625 C 691.699219 485.15625 685.273438 494.121094 679.351562 503.421875 C 673.601562 512.550781 665.148438 522.191406 670.050781 533.351562 C 671.910156 537.410156 676.648438 539.609375 681.042969 538.933594 Z M 681.042969 538.933594 " fill-opacity="1" fill-rule="nonzero"/><path fill="#f4f4f4" d="M 535.945312 435.777344 C 542.878906 442.203125 549.8125 448.96875 557.25 454.546875 C 568.582031 463.171875 584.648438 446.261719 574.332031 435.777344 C 567.738281 429.011719 560.296875 422.925781 553.023438 416.835938 C 545.921875 410.917969 538.648438 405.167969 530.023438 401.785156 C 522.582031 398.910156 514.296875 407.367188 518.1875 414.640625 C 522.753906 423.09375 529.179688 429.519531 535.945312 435.777344 Z M 535.945312 435.777344 " fill-opacity="1" fill-rule="nonzero"/><path fill="#f4f4f4" d="M 463.5625 500.039062 C 454.769531 503.757812 449.527344 513.566406 444.960938 521.515625 C 439.886719 530.476562 434.8125 539.777344 430.921875 549.25 C 424.835938 564.296875 447.328125 571.910156 454.261719 557.871094 C 458.65625 549.078125 462.546875 539.945312 466.945312 530.984375 C 471.003906 522.867188 475.570312 514.917969 474.722656 505.617188 C 474.386719 500.546875 467.960938 498.347656 463.5625 500.039062 Z M 463.5625 500.039062 " fill-opacity="1" fill-rule="nonzero"/><path fill="#f4f4f4" d="M 372.578125 425.632812 C 364.460938 423.261719 356.511719 420.726562 348.394531 418.527344 C 333.175781 414.46875 324.210938 436.960938 339.769531 441.863281 C 347.886719 444.402344 356.003906 446.601562 364.121094 448.96875 C 371.902344 451.167969 380.359375 454.71875 388.476562 452.6875 C 395.578125 450.996094 400.144531 442.035156 394.5625 435.945312 C 388.304688 429.691406 380.695312 428 372.578125 425.632812 Z M 372.578125 425.632812 " fill-opacity="1" fill-rule="nonzero"/><path fill="#f4f4f4" d="M 399.296875 341.246094 C 407.246094 339.554688 415.027344 337.695312 422.636719 335.160156 C 429.738281 332.792969 438.703125 329.917969 443.777344 324.335938 C 449.695312 317.910156 448.679688 303.367188 437.347656 303.703125 C 429.0625 303.875 421.792969 307.257812 414.011719 310.300781 C 406.570312 313.175781 399.46875 316.21875 392.027344 318.925781 C 379.511719 323.320312 386.277344 343.953125 399.296875 341.246094 Z M 399.296875 341.246094 " fill-opacity="1" fill-rule="nonzero"/><path fill="#f4f4f4" d="M 266.375 283.242188 C 274.152344 287.976562 282.777344 286.625 291.402344 286.457031 C 300.199219 286.285156 308.316406 286.625 315.925781 281.550781 C 321.335938 278 319.984375 269.039062 315.25 265.824219 C 308.316406 261.257812 300.367188 261.597656 292.417969 261.429688 C 284.640625 261.257812 275 259.566406 268.066406 263.796875 C 261.300781 267.855469 258.425781 278.507812 266.375 283.242188 Z M 266.375 283.242188 " fill-opacity="1" fill-rule="nonzero"/><path fill="#f4f4f4" d="M 463.222656 230.820312 C 472.863281 218.136719 486.394531 203.253906 488.929688 187.191406 C 489.945312 180.933594 481.996094 175.015625 476.414062 178.398438 C 462.546875 187.019531 453.078125 204.101562 442.761719 216.613281 C 432.785156 228.960938 453.414062 243.671875 463.222656 230.820312 Z M 463.222656 230.820312 " fill-opacity="1" fill-rule="nonzero"/><path fill="#f4f4f4" d="M 327.933594 143.054688 C 336.558594 146.4375 346.195312 147.957031 355.160156 149.988281 C 364.292969 152.015625 373.085938 154.554688 382.386719 153.367188 C 391.179688 152.183594 393.71875 139.671875 386.445312 134.765625 C 378.667969 129.523438 369.535156 128.003906 360.570312 125.804688 C 351.4375 123.605469 342.308594 120.730469 333.003906 120.054688 C 319.644531 118.871094 315.417969 138.148438 327.933594 143.054688 Z M 327.933594 143.054688 " fill-opacity="1" fill-rule="nonzero"/><path fill="#f4f4f4" d="M 220.542969 182.117188 C 225.617188 185.667969 234.242188 184.824219 237.625 179.074219 C 241.175781 173.15625 244.390625 166.898438 247.433594 160.640625 C 250.476562 154.554688 252.167969 148.125 254.707031 141.871094 C 258.59375 132.398438 245.066406 125.972656 239.316406 133.753906 C 235.425781 138.824219 231.03125 143.390625 227.476562 148.632812 C 223.925781 153.875 220.542969 159.289062 217.5 164.867188 C 214.289062 170.785156 214.625 177.890625 220.542969 182.117188 Z M 220.542969 182.117188 " fill-opacity="1" fill-rule="nonzero"/></svg>