<svg xmlns="http://www.w3.org/2000/svg" xmlns:xlink="http://www.w3.org/1999/xlink" width="1920" zoomAndPan="magnify" viewBox="0 0 1440 809.999993" height="1080" preserveAspectRatio="xMidYMid meet" version="1.0"><path fill="#ffffff" d="M 769.78125 257.246094 C 758.894531 260.613281 747.976562 256.980469 737.648438 253.386719 C 727.632812 249.902344 717.625 247.015625 706.914062 247.234375 C 688.25 247.617188 670.117188 257.875 663.054688 275.683594 C 659.675781 284.207031 659.734375 293.769531 663.136719 302.277344 C 666.726562 311.261719 673.34375 317.386719 681.421875 322.367188 C 685.578125 324.929688 689.902344 327.316406 693.601562 330.53125 C 697.484375 333.90625 700.320312 338.167969 702.140625 342.96875 C 705.917969 352.921875 705.601562 363.691406 706.214844 374.144531 C 706.800781 384.101562 708.671875 393.667969 713.820312 402.324219 C 718.285156 409.839844 724.554688 416.21875 731.796875 421.085938 C 748.984375 432.628906 770.925781 434.449219 790.738281 429.921875 C 809.234375 425.695312 828.933594 414.976562 833.914062 395.1875 C 839.371094 373.507812 822.410156 355.265625 814.390625 336.765625 C 812.175781 331.648438 810.472656 326.199219 810.097656 320.609375 C 809.714844 314.914062 810.898438 309.382812 812.425781 303.929688 C 814.769531 295.5625 817.277344 287.5625 816.140625 278.773438 C 815.25 271.929688 812.363281 265.21875 806.988281 260.714844 C 800.613281 255.375 791.332031 253.640625 783.203125 253.96875 C 778.421875 254.160156 773.890625 255.453125 769.523438 257.359375 C 768.242188 257.921875 769.347656 259.796875 770.625 259.242188 C 779.558594 255.339844 790.003906 255.085938 799.15625 258.597656 C 806 261.222656 810.816406 266.96875 812.902344 273.914062 C 815.140625 281.359375 814.367188 289.089844 812.304688 296.472656 C 809.617188 306.089844 806.6875 315.28125 808.519531 325.363281 C 812.199219 345.671875 829.074219 360.796875 832.316406 381.242188 C 833.902344 391.253906 830.851562 401.082031 824.472656 408.867188 C 818.21875 416.507812 809.464844 421.617188 800.257812 424.894531 C 781.164062 431.691406 758.746094 432.460938 740.230469 423.425781 C 723.925781 415.46875 711.773438 400.503906 709.167969 382.359375 C 706.539062 364.078125 710.585938 341.917969 694.628906 328.554688 C 687.828125 322.855469 679.230469 319.621094 672.90625 313.316406 C 666.082031 306.507812 662.257812 296.789062 662.734375 287.148438 C 663.65625 268.480469 679.871094 254.011719 697.371094 250.449219 C 707.441406 248.402344 717.945312 249.492188 727.734375 252.386719 C 737.203125 255.1875 746.304688 259.425781 756.203125 260.566406 C 760.984375 261.117188 765.757812 260.773438 770.363281 259.351562 C 771.699219 258.9375 771.128906 256.832031 769.78125 257.25 Z M 769.78125 257.246094 " fill-opacity="1" fill-rule="nonzero"/><path fill="#ffffff" d="M 773.941406 238.023438 C 759.9375 242.394531 745.78125 237.835938 732.476562 233.210938 C 719.414062 228.671875 706.40625 224.773438 692.429688 224.953125 C 679.601562 225.117188 666.75 228.519531 656.097656 235.800781 C 646.8125 242.140625 639.234375 251.050781 634.996094 261.507812 C 630.550781 272.480469 630.480469 284.792969 634.746094 295.839844 C 636.882812 301.363281 639.980469 306.492188 643.945312 310.898438 C 648.125 315.542969 653.28125 319.082031 658.570312 322.347656 C 663.988281 325.695312 669.632812 328.808594 674.476562 332.980469 C 679.441406 337.253906 683.136719 342.613281 685.5625 348.691406 C 690.644531 361.425781 690.417969 375.320312 691.125 388.785156 C 691.808594 401.734375 693.914062 414.269531 700.371094 425.675781 C 706.035156 435.675781 714.164062 444.191406 723.601562 450.703125 C 745.425781 465.765625 773.40625 468.597656 798.902344 463.257812 C 823.433594 458.125 849.894531 444.550781 857.019531 418.527344 C 864.691406 390.484375 842.863281 366.484375 832.222656 342.632812 C 829.335938 336.167969 827.050781 329.3125 826.300781 322.246094 C 825.523438 314.910156 826.71875 307.730469 828.613281 300.652344 C 831.605469 289.449219 835.425781 278.789062 834.171875 267.011719 C 833.214844 257.992188 829.679688 249.058594 822.761719 242.960938 C 814.5 235.675781 802.25 233.351562 791.519531 233.746094 C 785.292969 233.972656 779.363281 235.636719 773.679688 238.132812 C 772.398438 238.695312 773.503906 240.574219 774.777344 240.011719 C 786.441406 234.890625 799.945312 234.582031 811.941406 239.015625 C 821.027344 242.371094 827.511719 249.867188 830.355469 259.03125 C 833.238281 268.339844 832.597656 278.253906 830.074219 287.558594 C 828.234375 294.339844 825.933594 301.023438 824.71875 307.964844 C 823.609375 314.296875 823.613281 320.664062 824.816406 326.980469 C 829.871094 353.460938 851.984375 373.253906 855.894531 400.09375 C 857.8125 413.265625 853.609375 426.140625 845.125 436.273438 C 836.761719 446.261719 825.160156 452.882812 812.980469 457.113281 C 788.097656 465.761719 759.085938 466.621094 735.035156 454.871094 C 714.128906 444.65625 698.261719 425.484375 694.582031 402.261719 C 690.777344 378.277344 696.644531 348.921875 675.753906 331.214844 C 666.566406 323.429688 654.8125 319.144531 646.417969 310.363281 C 638 301.558594 633.273438 289.300781 633.765625 277.113281 C 634.75 252.777344 655.617188 233.621094 678.394531 228.683594 C 691.523438 225.835938 705.292969 227.074219 718.125 230.761719 C 730.65625 234.359375 742.644531 240.042969 755.691406 241.648438 C 762.03125 242.425781 768.40625 242.035156 774.519531 240.125 C 775.851562 239.707031 775.285156 237.601562 773.941406 238.023438 Z M 773.941406 238.023438 " fill-opacity="1" fill-rule="nonzero"/><path fill="#ffffff" d="M 778.097656 218.796875 C 761.046875 224.160156 743.710938 218.726562 727.488281 213.097656 C 719.464844 210.316406 711.464844 207.425781 703.171875 205.53125 C 695.160156 203.699219 686.929688 202.667969 678.703125 202.667969 C 662.820312 202.671875 646.84375 206.660156 633.53125 215.5 C 621.996094 223.164062 612.46875 234.082031 607.117188 246.910156 C 601.515625 260.335938 601.167969 275.382812 606.226562 289.035156 C 608.820312 296.042969 612.683594 302.550781 617.660156 308.125 C 622.757812 313.835938 629.042969 318.195312 635.511719 322.199219 C 642.097656 326.277344 648.941406 330.054688 654.902344 335.046875 C 660.9375 340.097656 665.539062 346.402344 668.644531 353.628906 C 675.429688 369.421875 675.210938 386.933594 676.058594 403.773438 C 676.511719 412.8125 677.292969 421.90625 679.589844 430.6875 C 681.355469 437.433594 684.054688 443.9375 687.492188 450 C 694.460938 462.296875 704.464844 472.773438 716.074219 480.78125 C 743.082031 499.410156 777.742188 502.84375 809.265625 496.121094 C 839.296875 489.722656 871.679688 473.019531 880.324219 441.097656 C 889.695312 406.507812 862.675781 376.929688 849.605469 347.492188 C 846.085938 339.5625 843.292969 331.152344 842.386719 322.488281 C 841.4375 313.4375 842.890625 304.589844 845.222656 295.859375 C 847.28125 288.160156 850.019531 280.582031 851.382812 272.710938 C 852.414062 266.785156 852.738281 260.722656 852.144531 254.730469 C 851.042969 243.632812 846.769531 232.617188 838.34375 225.039062 C 833.890625 221.039062 828.523438 218.191406 822.792969 216.507812 C 815.480469 214.367188 807.445312 213.257812 799.824219 213.523438 C 792.15625 213.789062 784.835938 215.824219 777.839844 218.902344 C 776.558594 219.46875 777.667969 221.347656 778.941406 220.785156 C 793.328125 214.449219 809.90625 214.078125 824.734375 219.433594 C 835.882812 223.457031 843.988281 232.480469 847.652344 243.652344 C 851.351562 254.925781 850.859375 267.214844 847.859375 278.582031 C 845.664062 286.890625 842.828125 295.039062 841.203125 303.492188 C 839.683594 311.390625 839.484375 319.339844 840.882812 327.273438 C 846.726562 360.386719 874.46875 384.972656 879.394531 418.371094 C 881.75 434.359375 876.871094 449.996094 866.773438 462.480469 C 856.714844 474.921875 842.578125 483.273438 827.675781 488.640625 C 796.960938 499.710938 760.933594 501.042969 730.976562 486.855469 C 704.902344 474.507812 684.765625 450.808594 679.992188 422.019531 C 677.199219 405.1875 678.597656 387.96875 675.800781 371.132812 C 673.375 356.496094 667.613281 342.65625 655.921875 333.066406 C 644.476562 323.679688 630.089844 318.332031 619.902344 307.351562 C 609.617188 296.257812 603.988281 280.921875 604.871094 265.796875 C 606.609375 236.035156 632.238281 212.789062 660.171875 206.757812 C 676.386719 203.253906 693.394531 204.796875 709.238281 209.34375 C 724.769531 213.800781 739.628906 220.871094 755.808594 222.800781 C 763.507812 223.71875 771.269531 223.226562 778.6875 220.894531 C 780.019531 220.476562 779.449219 218.371094 778.105469 218.792969 Z M 778.097656 218.796875 " fill-opacity="1" fill-rule="nonzero"/><path fill="#ffffff" d="M 782.257812 199.570312 C 761.960938 205.984375 741.269531 199.5 721.957031 192.800781 C 712.582031 189.546875 703.230469 186.160156 693.550781 183.914062 C 683.867188 181.664062 673.828125 180.382812 663.835938 180.394531 C 645.167969 180.414062 626.390625 185.078125 610.695312 195.386719 C 596.933594 204.425781 585.527344 217.382812 579.113281 232.613281 C 572.320312 248.738281 571.90625 266.800781 578.066406 283.203125 C 581.15625 291.425781 585.734375 299.070312 591.601562 305.613281 C 597.570312 312.265625 604.902344 317.371094 612.453125 322.050781 C 620.394531 326.976562 628.667969 331.523438 635.851562 337.554688 C 642.9375 343.503906 648.347656 350.890625 652.046875 359.363281 C 660.148438 377.910156 660.015625 398.566406 660.972656 418.398438 C 661.484375 428.925781 662.3125 439.507812 664.8125 449.773438 C 666.804688 457.945312 669.925781 465.832031 673.980469 473.199219 C 682.125 487.992188 693.953125 500.625 707.742188 510.300781 C 739.722656 532.742188 780.925781 537.058594 818.488281 529.226562 C 854.394531 521.738281 893.238281 501.925781 903.601562 463.78125 C 914.753906 422.75 882.652344 387.574219 867.125 352.660156 C 862.988281 343.363281 859.703125 333.527344 858.539062 323.378906 C 857.296875 312.542969 858.953125 301.925781 861.726562 291.453125 C 864.167969 282.214844 867.46875 273.140625 869.132812 263.71875 C 870.359375 256.800781 870.765625 249.722656 870.132812 242.71875 C 868.921875 229.367188 863.859375 216.066406 853.722656 206.953125 C 848.445312 202.207031 842.085938 198.835938 835.289062 196.84375 C 826.527344 194.28125 816.902344 192.957031 807.777344 193.3125 C 798.789062 193.664062 790.191406 196.058594 781.996094 199.679688 C 780.71875 200.242188 781.824219 202.125 783.097656 201.558594 C 791.800781 197.714844 800.992188 195.417969 810.539062 195.445312 C 819.503906 195.46875 829.050781 196.839844 837.519531 199.855469 C 850.816406 204.589844 860.5625 215.238281 865.015625 228.527344 C 869.441406 241.71875 869.0625 256.253906 865.621094 269.621094 C 863.042969 279.636719 859.59375 289.429688 857.574219 299.589844 C 855.691406 309.070312 855.390625 318.613281 857.046875 328.152344 C 863.921875 367.804688 897.34375 397.1875 902.964844 437.226562 C 905.636719 456.253906 899.714844 474.828125 887.648438 489.617188 C 875.667969 504.304688 858.945312 514.171875 841.292969 520.546875 C 804.6875 533.765625 761.730469 535.335938 726.027344 518.421875 C 694.960938 503.707031 670.941406 475.433594 665.28125 441.117188 C 661.992188 421.179688 663.625 400.792969 660.34375 380.851562 C 657.460938 363.34375 650.617188 346.800781 636.601562 335.359375 C 622.90625 324.179688 605.710938 317.789062 593.613281 304.585938 C 581.515625 291.382812 574.828125 273.105469 575.929688 255.136719 C 578.082031 219.972656 608.175781 192.351562 641.199219 184.996094 C 660.46875 180.703125 680.71875 182.390625 699.605469 187.71875 C 718.203125 192.964844 735.953125 201.492188 755.285156 203.882812 C 764.550781 205.027344 773.910156 204.492188 782.835938 201.671875 C 784.167969 201.25 783.601562 199.144531 782.257812 199.570312 Z M 782.257812 199.570312 " fill-opacity="1" fill-rule="nonzero"/><path fill="#ffffff" d="M 786.414062 180.34375 C 762.742188 187.851562 738.570312 180.1875 716.058594 172.371094 C 705.210938 168.605469 694.390625 164.703125 683.183594 162.125 C 671.980469 159.546875 660.472656 158.101562 648.96875 158.121094 C 627.160156 158.160156 605.242188 163.6875 586.984375 175.855469 C 571.074219 186.464844 557.996094 201.574219 550.6875 219.316406 C 543 237.980469 542.792969 258.898438 550.050781 277.738281 C 553.769531 287.394531 559.269531 296.34375 566.308594 303.933594 C 573.347656 311.523438 581.855469 317.269531 590.578125 322.640625 C 599.699219 328.257812 609.148438 333.523438 617.320312 340.511719 C 625.675781 347.65625 631.972656 356.605469 636.160156 366.761719 C 644.96875 388.132812 644.839844 411.570312 645.949219 434.269531 C 646.546875 446.417969 647.527344 458.625 650.4375 470.464844 C 652.796875 480.066406 656.519531 489.324219 661.335938 497.953125 C 670.808594 514.910156 684.460938 529.386719 700.351562 540.476562 C 737.417969 566.34375 785.101562 571.265625 828.554688 562.152344 C 870.070312 553.445312 914.972656 530.496094 926.90625 486.355469 C 939.742188 438.894531 902.613281 398.207031 884.644531 357.832031 C 879.796875 346.941406 875.9375 335.417969 874.613281 323.523438 C 873.265625 311.421875 874.992188 299.554688 878.027344 287.835938 C 880.863281 276.878906 884.804688 266.148438 886.835938 254.996094 C 888.292969 247.003906 888.800781 238.8125 888.117188 230.710938 C 886.800781 215.105469 880.945312 199.519531 869.105469 188.863281 C 863.078125 183.445312 855.824219 179.574219 848.074219 177.265625 C 837.902344 174.238281 826.683594 172.703125 816.074219 173.097656 C 805.652344 173.488281 795.660156 176.253906 786.152344 180.457031 C 784.875 181.023438 785.980469 182.902344 787.253906 182.339844 C 797.484375 177.816406 808.300781 175.140625 819.523438 175.226562 C 829.757812 175.304688 840.625 176.871094 850.300781 180.28125 C 865.75 185.722656 877.132812 198.003906 882.382812 213.40625 C 887.628906 228.804688 887.207031 245.816406 883.183594 261.441406 C 880.214844 272.96875 876.257812 284.234375 873.910156 295.921875 C 871.703125 306.910156 871.320312 317.96875 873.210938 329.035156 C 881.085938 375.042969 919.835938 409.105469 926.453125 455.507812 C 929.589844 477.472656 922.878906 498.917969 909.0625 516.097656 C 895.3125 533.191406 876.011719 544.738281 855.617188 552.203125 C 813.164062 567.738281 763.265625 569.714844 721.707031 550.285156 C 685.949219 533.570312 657.804688 501.207031 650.851562 461.839844 C 646.730469 438.527344 648.703125 414.640625 645 391.273438 C 641.792969 371.054688 634.132812 351.699219 618.078125 338.3125 C 602.386719 325.230469 582.5 317.90625 568.324219 302.898438 C 553.980469 287.722656 545.972656 266.640625 546.925781 245.75 C 547.816406 226.238281 556.703125 207.785156 569.757812 193.488281 C 583.621094 178.308594 601.867188 167.957031 621.859375 163.328125 C 644.042969 158.1875 667.410156 159.933594 689.246094 165.902344 C 711.082031 171.871094 732.023438 182.078125 754.765625 184.964844 C 765.59375 186.339844 776.554688 185.761719 786.992188 182.449219 C 788.324219 182.027344 787.757812 179.921875 786.414062 180.347656 Z M 786.414062 180.34375 " fill-opacity="1" fill-rule="nonzero"/><path fill="#ffffff" d="M 790.570312 161.117188 C 764 169.5625 736.800781 161.171875 711.496094 152.40625 C 699 148.078125 686.554688 143.542969 673.660156 140.53125 C 660.996094 137.570312 648 135.886719 634.992188 135.84375 C 610.167969 135.757812 585.171875 141.902344 564.308594 155.640625 C 546.09375 167.632812 531.085938 184.824219 522.679688 205.03125 C 513.855469 226.246094 513.53125 250.03125 521.742188 271.5 C 525.898438 282.371094 532.046875 292.460938 539.910156 301.046875 C 547.9375 309.8125 557.78125 316.496094 567.84375 322.695312 C 578.132812 329.027344 588.777344 334.976562 598.027344 342.816406 C 607.410156 350.78125 614.539062 360.703125 619.359375 372.015625 C 629.660156 396.171875 629.636719 422.882812 630.851562 448.65625 C 631.519531 462.757812 632.59375 476.9375 635.949219 490.691406 C 638.601562 501.5625 642.773438 512.042969 648.199219 521.824219 C 658.957031 541.21875 674.527344 557.773438 692.664062 570.445312 C 712.734375 584.460938 735.972656 593.34375 760.074219 597.34375 C 786.210938 601.683594 813.105469 600.492188 838.980469 595 C 863.878906 589.714844 888.691406 580.710938 909.378906 565.605469 C 928.480469 551.65625 944 532 950.214844 508.917969 C 957.09375 483.371094 950.34375 457.28125 939.617188 433.839844 C 928.398438 409.316406 912.804688 387.085938 901.898438 362.402344 C 896.503906 350.191406 892.226562 337.292969 890.71875 323.976562 C 889.144531 310.109375 891.136719 296.496094 894.621094 283.0625 C 897.824219 270.730469 902.246094 258.644531 904.5625 246.097656 C 906.253906 236.914062 906.847656 227.496094 906.054688 218.183594 C 904.566406 200.730469 898.082031 183.300781 884.988281 171.234375 C 878.152344 164.933594 869.859375 160.417969 860.976562 157.722656 C 849.492188 154.238281 836.796875 152.488281 824.796875 152.859375 C 812.796875 153.234375 801.257812 156.382812 790.308594 161.230469 C 789.027344 161.796875 790.136719 163.675781 791.410156 163.113281 C 803.125 157.925781 815.507812 154.886719 828.363281 155.003906 C 834.5 155.058594 840.613281 155.738281 846.660156 156.777344 C 852.367188 157.757812 858.082031 158.90625 863.546875 160.863281 C 880.867188 167.058594 893.6875 180.84375 899.691406 198.117188 C 905.75 215.566406 905.390625 234.941406 900.886719 252.703125 C 897.574219 265.777344 893.070312 278.527344 890.34375 291.753906 C 887.757812 304.300781 887.210938 316.945312 889.324219 329.601562 C 898.054688 381.867188 941.851562 420.527344 949.835938 473.035156 C 951.75 485.625 951.105469 498.503906 947.433594 510.71875 C 943.941406 522.335938 937.96875 533.167969 930.417969 542.636719 C 914.863281 562.140625 892.957031 575.351562 869.785156 583.902344 C 821.5625 601.699219 764.832031 604.054688 717.5 582.195312 C 676.558594 563.285156 644.21875 526.351562 636.21875 481.382812 C 631.507812 454.890625 633.738281 427.75 629.570312 401.195312 C 627.769531 389.710938 624.816406 378.332031 619.839844 367.792969 C 614.804688 357.125 607.589844 347.871094 598.488281 340.375 C 580.550781 325.605469 557.945312 317.238281 541.929688 300.027344 C 525.914062 282.816406 516.886719 258.9375 517.972656 235.328125 C 518.996094 213.191406 529.042969 192.269531 543.8125 176.011719 C 559.496094 158.75 580.183594 146.921875 602.847656 141.582031 C 628.324219 135.578125 655.195312 137.574219 680.28125 144.464844 C 705.042969 151.269531 728.578125 162.726562 754.246094 166.042969 C 766.640625 167.644531 779.191406 167.019531 791.148438 163.222656 C 792.480469 162.796875 791.910156 160.695312 790.570312 161.121094 Z M 790.570312 161.117188 " fill-opacity="1" fill-rule="nonzero"/><path fill="#ffffff" d="M 794.726562 141.894531 C 764.921875 151.363281 734.414062 141.960938 706.027344 132.128906 C 692.023438 127.277344 678.070312 122.191406 663.617188 118.816406 C 649.4375 115.503906 634.882812 113.621094 620.3125 113.570312 C 592.511719 113.472656 564.519531 120.351562 541.15625 135.738281 C 520.769531 149.160156 503.96875 168.402344 494.558594 191.019531 C 484.671875 214.777344 484.308594 241.40625 493.503906 265.453125 C 498.15625 277.613281 505.039062 288.90625 513.835938 298.511719 C 522.828125 308.328125 533.847656 315.8125 545.121094 322.753906 C 556.660156 329.855469 568.601562 336.53125 578.972656 345.328125 C 589.507812 354.265625 597.503906 365.402344 602.914062 378.097656 C 614.464844 405.195312 614.441406 435.144531 615.808594 464.050781 C 616.554688 479.84375 617.753906 495.726562 621.511719 511.128906 C 624.484375 523.300781 629.15625 535.039062 635.230469 545.992188 C 647.28125 567.707031 664.710938 586.253906 685.023438 600.441406 C 707.511719 616.148438 733.542969 626.097656 760.546875 630.578125 C 789.816406 635.441406 819.941406 634.101562 848.917969 627.953125 C 876.8125 622.03125 904.609375 611.941406 927.792969 595.015625 C 949.175781 579.402344 966.546875 557.398438 973.503906 531.558594 C 981.203125 502.964844 973.648438 473.753906 961.640625 447.511719 C 949.0625 420.027344 931.585938 395.105469 919.363281 367.441406 C 913.304688 353.730469 908.503906 339.257812 906.8125 324.304688 C 905.050781 308.75 907.285156 293.476562 911.195312 278.410156 C 914.785156 264.589844 919.738281 251.042969 922.335938 236.976562 C 924.234375 226.695312 924.890625 216.15625 924.003906 205.730469 C 922.339844 186.199219 915.082031 166.699219 900.433594 153.195312 C 892.785156 146.148438 883.507812 141.101562 873.578125 138.085938 C 860.714844 134.183594 846.5 132.222656 833.058594 132.640625 C 819.621094 133.058594 806.71875 136.578125 794.46875 142.003906 C 793.1875 142.570312 794.296875 144.449219 795.570312 143.886719 C 808.722656 138.0625 822.621094 134.644531 837.054688 134.777344 C 843.945312 134.839844 850.808594 135.609375 857.597656 136.773438 C 863.996094 137.871094 870.398438 139.160156 876.527344 141.351562 C 895.988281 148.3125 910.386719 163.792969 917.125 183.199219 C 923.929688 202.777344 923.519531 224.519531 918.46875 244.453125 C 914.757812 259.105469 909.707031 273.398438 906.652344 288.222656 C 903.761719 302.261719 903.148438 316.410156 905.511719 330.574219 C 915.296875 389.15625 964.382812 432.484375 973.332031 491.339844 C 975.484375 505.472656 974.765625 519.933594 970.644531 533.644531 C 966.722656 546.691406 960.015625 558.847656 951.539062 569.480469 C 934.089844 591.359375 909.511719 606.175781 883.519531 615.765625 C 829.433594 635.722656 765.816406 638.351562 712.726562 613.835938 C 666.8125 592.628906 630.535156 551.195312 621.5625 500.761719 C 616.28125 471.070312 618.785156 440.648438 614.113281 410.886719 C 612.097656 398.027344 608.792969 385.28125 603.21875 373.480469 C 597.578125 361.53125 589.5 351.167969 579.304688 342.773438 C 559.199219 326.21875 533.867188 316.839844 515.914062 297.550781 C 497.871094 278.164062 487.800781 251.4375 489.027344 224.9375 C 490.171875 200.09375 501.449219 176.609375 518.023438 158.363281 C 535.617188 138.996094 558.828125 125.726562 584.253906 119.734375 C 612.832031 113.003906 642.976562 115.238281 671.113281 122.96875 C 698.855469 130.589844 725.226562 143.429688 753.980469 147.148438 C 767.859375 148.945312 781.921875 148.25 795.308594 143.996094 C 796.640625 143.570312 796.070312 141.464844 794.726562 141.894531 Z M 794.726562 141.894531 " fill-opacity="1" fill-rule="nonzero"/><path fill="#ffffff" d="M 798.886719 122.667969 C 765.847656 133.164062 732.027344 122.75 700.5625 111.851562 C 685.046875 106.476562 669.589844 100.84375 653.578125 97.101562 C 637.878906 93.433594 621.765625 91.347656 605.636719 91.292969 C 574.855469 91.191406 543.871094 98.800781 518.003906 115.835938 C 495.453125 130.6875 476.835938 151.984375 466.433594 177.007812 C 455.496094 203.316406 455.085938 232.773438 465.269531 259.402344 C 470.414062 272.855469 478.027344 285.347656 487.761719 295.972656 C 497.714844 306.84375 509.914062 315.128906 522.394531 322.8125 C 535.1875 330.6875 548.421875 338.085938 559.921875 347.839844 C 571.601562 357.746094 580.464844 370.101562 586.46875 384.175781 C 599.269531 414.210938 599.246094 447.402344 600.761719 479.441406 C 601.585938 496.925781 602.914062 514.507812 607.078125 531.5625 C 610.363281 545.039062 615.535156 558.035156 622.261719 570.160156 C 635.597656 594.199219 654.894531 614.730469 677.382812 630.4375 C 702.285156 647.832031 731.113281 658.847656 761.019531 663.8125 C 793.425781 669.195312 826.78125 667.710938 858.859375 660.902344 C 889.75 654.347656 920.53125 643.171875 946.207031 624.425781 C 969.871094 607.148438 989.09375 582.789062 996.792969 554.195312 C 1005.3125 522.546875 996.953125 490.21875 983.664062 461.175781 C 969.730469 430.726562 950.367188 403.121094 936.824219 372.476562 C 930.105469 357.265625 924.785156 341.214844 922.90625 324.628906 C 920.953125 307.386719 923.429688 290.457031 927.765625 273.753906 C 931.738281 258.445312 937.226562 243.433594 940.105469 227.855469 C 942.207031 216.476562 942.929688 204.808594 941.949219 193.269531 C 940.109375 171.664062 932.074219 150.09375 915.871094 135.15625 C 907.414062 127.359375 897.15625 121.777344 886.171875 118.445312 C 871.933594 114.125 856.195312 111.957031 841.316406 112.417969 C 826.441406 112.878906 812.175781 116.773438 798.625 122.773438 C 797.34375 123.339844 798.453125 125.21875 799.726562 124.65625 C 814.316406 118.195312 829.734375 114.402344 845.746094 114.550781 C 853.386719 114.621094 861.003906 115.472656 868.53125 116.765625 C 875.621094 117.984375 882.714844 119.410156 889.503906 121.835938 C 911.097656 129.566406 927.078125 146.742188 934.5625 168.277344 C 942.105469 189.988281 941.648438 214.101562 936.050781 236.199219 C 931.9375 252.429688 926.339844 268.269531 922.960938 284.6875 C 919.757812 300.21875 919.078125 315.875 921.695312 331.542969 C 932.535156 396.441406 986.910156 444.441406 996.828125 509.640625 C 999.214844 525.320312 998.421875 541.359375 993.847656 556.574219 C 989.5 571.042969 982.058594 584.527344 972.652344 596.320312 C 953.3125 620.570312 926.058594 636.996094 897.246094 647.625 C 837.300781 669.75 766.792969 672.652344 707.953125 645.476562 C 657.058594 621.972656 616.847656 576.042969 606.90625 520.144531 C 601.054688 487.25 603.828125 453.550781 598.652344 420.578125 C 596.421875 406.34375 592.765625 392.230469 586.597656 379.164062 C 580.351562 365.9375 571.410156 354.46875 560.125 345.175781 C 537.851562 326.835938 509.789062 316.445312 489.898438 295.074219 C 469.886719 273.574219 458.71875 243.9375 460.074219 214.550781 C 461.347656 186.992188 473.847656 160.953125 492.234375 140.710938 C 511.734375 119.242188 537.472656 104.53125 565.652344 97.890625 C 597.332031 90.425781 630.75 92.902344 661.941406 101.472656 C 692.664062 109.914062 721.871094 124.132812 753.710938 128.257812 C 769.082031 130.246094 784.644531 129.472656 799.464844 124.765625 C 800.796875 124.339844 800.226562 122.234375 798.886719 122.664062 Z M 798.886719 122.667969 " fill-opacity="1" fill-rule="nonzero"/><path fill="#ffffff" d="M 803.042969 103.441406 C 766.773438 114.96875 729.640625 103.539062 695.09375 91.574219 C 678.070312 85.675781 661.109375 79.496094 643.539062 75.390625 C 626.320312 71.367188 608.648438 69.082031 590.960938 69.019531 C 557.203125 68.90625 523.222656 77.253906 494.851562 95.933594 C 470.128906 112.214844 449.71875 135.566406 438.3125 162.996094 C 426.3125 191.851562 425.867188 224.152344 437.035156 253.351562 C 442.675781 268.097656 451.023438 281.789062 461.6875 293.4375 C 472.605469 305.359375 485.984375 314.445312 499.671875 322.871094 C 513.71875 331.519531 528.246094 339.640625 540.875 350.351562 C 553.699219 361.230469 563.4375 374.800781 570.023438 390.261719 C 584.078125 423.230469 584.054688 459.664062 585.714844 494.835938 C 586.625 514.015625 588.082031 533.296875 592.644531 552.003906 C 596.253906 566.78125 601.921875 581.03125 609.296875 594.332031 C 623.921875 620.695312 645.082031 643.210938 669.742188 660.4375 C 697.0625 679.519531 728.6875 691.605469 761.492188 697.050781 C 797.03125 702.953125 833.617188 701.324219 868.796875 693.855469 C 902.6875 686.664062 936.453125 674.40625 964.621094 653.839844 C 990.5625 634.898438 1011.636719 608.1875 1020.078125 576.839844 C 1029.421875 542.140625 1020.253906 506.691406 1005.683594 474.851562 C 990.390625 441.4375 969.144531 411.144531 954.285156 377.515625 C 946.90625 360.808594 941.0625 343.179688 938.996094 324.960938 C 936.851562 306.03125 939.574219 287.441406 944.335938 269.105469 C 948.699219 252.304688 954.71875 235.835938 957.878906 218.742188 C 960.179688 206.261719 960.972656 193.46875 959.894531 180.816406 C 957.878906 157.136719 949.070312 133.492188 931.3125 117.125 C 922.046875 108.582031 910.804688 102.464844 898.769531 98.8125 C 883.152344 94.074219 865.894531 91.695312 849.578125 92.203125 C 833.28125 92.707031 817.632812 96.976562 802.78125 103.550781 C 801.503906 104.117188 802.609375 105.996094 803.882812 105.433594 C 819.910156 98.335938 836.847656 94.167969 854.433594 94.332031 C 862.832031 94.40625 871.199219 95.34375 879.46875 96.765625 C 887.246094 98.101562 895.03125 99.667969 902.480469 102.328125 C 926.214844 110.824219 943.773438 129.691406 952 153.363281 C 960.28125 177.207031 959.78125 203.683594 953.632812 227.953125 C 949.117188 245.765625 942.976562 263.140625 939.265625 281.160156 C 935.761719 298.183594 935.011719 315.347656 937.878906 332.519531 C 949.773438 403.730469 1009.441406 456.402344 1020.324219 527.949219 C 1022.945312 545.171875 1022.082031 562.789062 1017.054688 579.503906 C 1012.277344 595.402344 1004.101562 610.210938 993.769531 623.167969 C 972.535156 649.796875 942.613281 667.820312 910.980469 679.496094 C 845.167969 703.78125 767.769531 706.957031 703.179688 677.128906 C 647.3125 651.328125 603.164062 600.894531 592.25 539.53125 C 585.828125 503.4375 588.871094 466.457031 583.195312 430.277344 C 580.742188 414.667969 576.738281 399.1875 569.972656 384.859375 C 563.125 370.351562 553.320312 357.777344 540.9375 347.582031 C 516.496094 327.457031 485.707031 316.054688 463.878906 292.605469 C 441.902344 268.996094 429.632812 236.445312 431.125 204.167969 C 432.519531 173.902344 446.25 145.304688 466.445312 123.070312 C 487.855469 99.5 516.113281 83.347656 547.054688 76.054688 C 581.835938 67.863281 618.523438 70.578125 652.773438 79.988281 C 686.472656 89.246094 718.515625 104.851562 753.445312 109.371094 C 770.300781 111.554688 787.363281 110.710938 803.621094 105.542969 C 804.953125 105.121094 804.382812 103.015625 803.042969 103.441406 Z M 803.042969 103.441406 " fill-opacity="1" fill-rule="nonzero"/><path fill="#ffffff" d="M 807.203125 84.214844 C 767.695312 96.765625 727.253906 84.328125 689.625 71.292969 C 671.089844 64.875 652.625 58.140625 633.496094 53.671875 C 614.761719 49.296875 595.53125 46.808594 576.277344 46.742188 C 539.542969 46.617188 502.570312 55.703125 471.695312 76.03125 C 444.804688 93.738281 422.59375 119.144531 410.1875 148.980469 C 397.128906 180.382812 396.644531 215.523438 408.796875 247.300781 C 414.925781 263.335938 424.007812 278.234375 435.609375 290.898438 C 447.488281 303.875 462.046875 313.757812 476.941406 322.929688 C 492.238281 332.347656 508.0625 341.195312 521.816406 352.859375 C 535.789062 364.714844 546.394531 379.5 553.574219 396.339844 C 568.875 432.25 568.855469 471.925781 570.664062 510.230469 C 571.652344 531.097656 573.234375 552.085938 578.203125 572.441406 C 582.128906 588.523438 588.296875 604.027344 596.324219 618.5 C 612.238281 647.1875 635.257812 671.6875 662.09375 690.429688 C 691.832031 711.203125 726.25 724.355469 761.960938 730.285156 C 800.632812 736.707031 840.449219 734.929688 878.730469 726.808594 C 915.621094 718.976562 952.371094 705.636719 983.03125 683.253906 C 1011.253906 662.644531 1034.183594 633.582031 1043.363281 599.480469 C 1053.527344 561.730469 1043.550781 523.160156 1027.699219 488.519531 C 1011.054688 452.140625 987.921875 419.164062 971.746094 382.550781 C 963.699219 364.34375 957.335938 345.140625 955.085938 325.285156 C 952.75 304.671875 955.714844 284.417969 960.898438 264.453125 C 965.648438 246.160156 972.207031 228.234375 975.644531 209.621094 C 978.152344 196.042969 979.011719 182.125 977.839844 168.355469 C 975.644531 142.601562 966.066406 116.886719 946.746094 99.082031 C 936.671875 89.792969 924.445312 83.144531 911.359375 79.175781 C 894.367188 74.015625 875.585938 71.429688 857.832031 71.980469 C 840.078125 72.535156 823.089844 77.171875 806.9375 84.324219 C 805.65625 84.890625 806.765625 86.769531 808.035156 86.207031 C 825.5 78.476562 843.953125 73.929688 863.117188 74.105469 C 872.269531 74.1875 881.386719 75.210938 890.398438 76.757812 C 898.867188 78.210938 907.34375 79.914062 915.449219 82.816406 C 941.324219 92.074219 960.460938 112.640625 969.429688 138.445312 C 978.449219 164.414062 977.902344 193.261719 971.203125 219.699219 C 966.292969 239.09375 959.605469 258.007812 955.566406 277.625 C 951.753906 296.140625 950.9375 314.8125 954.058594 333.492188 C 967.007812 411.015625 1031.964844 468.359375 1043.816406 546.253906 C 1046.671875 565.023438 1045.730469 584.21875 1040.253906 602.433594 C 1035.042969 619.757812 1026.136719 635.894531 1014.878906 650.011719 C 991.746094 679.011719 959.15625 698.644531 924.699219 711.359375 C 853.027344 737.808594 768.742188 741.257812 698.398438 708.769531 C 637.554688 680.671875 589.472656 625.742188 577.585938 558.914062 C 570.59375 519.617188 573.90625 479.359375 567.726562 439.96875 C 565.058594 422.984375 560.703125 406.136719 553.34375 390.546875 C 545.890625 374.757812 535.222656 361.074219 521.75 349.980469 C 495.140625 328.070312 461.621094 315.660156 437.855469 290.128906 C 413.914062 264.40625 400.542969 228.941406 402.164062 193.78125 C 403.6875 160.800781 418.640625 129.644531 440.648438 105.421875 C 463.96875 79.746094 494.75 62.148438 528.449219 54.210938 C 566.332031 45.285156 606.292969 48.242188 643.59375 58.492188 C 680.277344 68.566406 715.152344 85.554688 753.167969 90.480469 C 771.511719 92.855469 790.078125 91.9375 807.769531 86.316406 C 809.101562 85.894531 808.53125 83.789062 807.191406 84.214844 Z M 807.203125 84.214844 " fill-opacity="1" fill-rule="nonzero"/><path fill="#ffffff" d="M 811.359375 64.988281 C 768.621094 78.570312 724.867188 65.113281 684.15625 51.015625 C 664.113281 44.074219 644.144531 36.792969 623.457031 31.960938 C 603.199219 27.230469 582.414062 24.539062 561.601562 24.46875 C 521.890625 24.332031 481.917969 34.15625 448.542969 56.128906 C 419.480469 75.265625 395.472656 102.726562 382.066406 134.972656 C 367.949219 168.914062 367.421875 206.902344 380.558594 241.253906 C 387.1875 258.582031 397 274.679688 409.535156 288.363281 C 422.382812 302.390625 438.113281 313.074219 454.21875 322.988281 C 470.769531 333.175781 487.886719 342.75 502.765625 355.371094 C 517.886719 368.195312 529.363281 384.199219 537.128906 402.421875 C 553.683594 441.269531 553.664062 484.183594 555.621094 525.621094 C 556.6875 548.1875 558.402344 570.871094 563.773438 592.878906 C 568.015625 610.265625 574.683594 627.023438 583.359375 642.667969 C 600.5625 673.675781 625.449219 700.167969 654.457031 720.429688 C 686.613281 742.886719 723.824219 757.109375 762.4375 763.519531 C 804.246094 770.460938 847.289062 768.542969 888.671875 759.757812 C 928.558594 751.292969 968.292969 736.871094 1001.445312 712.664062 C 1031.953125 690.394531 1056.730469 658.980469 1066.652344 622.121094 C 1077.636719 581.320312 1066.855469 539.628906 1049.722656 502.1875 C 1031.722656 462.847656 1006.707031 427.183594 989.210938 387.589844 C 980.503906 367.882812 973.621094 347.101562 971.1875 325.613281 C 968.660156 303.308594 971.867188 281.398438 977.476562 259.800781 C 982.613281 240.019531 989.703125 220.628906 993.417969 200.5 C 996.128906 185.824219 997.054688 170.777344 995.789062 155.898438 C 993.421875 128.070312 983.066406 100.285156 962.195312 81.046875 C 951.308594 71.011719 938.097656 63.828125 923.964844 59.539062 C 905.589844 53.960938 885.292969 51.164062 866.097656 51.761719 C 846.902344 52.359375 828.554688 57.371094 811.101562 65.097656 C 809.820312 65.664062 810.925781 67.542969 812.199219 66.980469 C 831.105469 58.609375 851.074219 53.6875 871.816406 53.878906 C 881.71875 53.96875 891.585938 55.074219 901.339844 56.75 C 910.5 58.324219 919.664062 60.167969 928.433594 63.304688 C 956.449219 73.328125 977.167969 95.589844 986.871094 123.527344 C 996.636719 151.628906 996.042969 182.847656 988.792969 211.449219 C 983.480469 232.417969 976.25 252.878906 971.882812 274.09375 C 967.757812 294.097656 966.878906 314.277344 970.25 334.460938 C 984.25 418.300781 1054.503906 480.316406 1067.316406 564.558594 C 1070.40625 584.871094 1069.394531 605.648438 1063.46875 625.359375 C 1057.828125 644.109375 1048.1875 661.574219 1036 676.851562 C 1010.976562 708.230469 975.714844 729.46875 938.441406 743.222656 C 860.90625 771.835938 769.726562 775.558594 693.632812 740.414062 C 627.816406 710.019531 575.796875 650.589844 562.9375 578.292969 C 555.378906 535.796875 558.960938 492.257812 552.273438 449.660156 C 549.394531 431.300781 544.6875 413.085938 536.730469 396.230469 C 528.671875 379.164062 517.144531 364.375 502.578125 352.378906 C 473.800781 328.683594 437.550781 315.265625 411.847656 287.652344 C 385.941406 259.816406 371.46875 221.441406 373.226562 183.390625 C 374.871094 147.703125 391.054688 113.984375 414.867188 87.769531 C 440.097656 59.996094 473.402344 40.953125 509.863281 32.363281 C 550.847656 22.710938 594.078125 25.90625 634.433594 36.992188 C 674.097656 47.890625 711.808594 66.261719 752.914062 71.585938 C 772.742188 74.15625 792.816406 73.164062 811.941406 67.085938 C 813.273438 66.660156 812.703125 64.554688 811.363281 64.984375 Z M 811.359375 64.988281 " fill-opacity="1" fill-rule="nonzero"/><path fill="#ffffff" d="M 815.515625 45.761719 C 769.542969 60.371094 722.476562 45.902344 678.6875 30.734375 C 657.136719 23.269531 635.660156 15.445312 613.417969 10.246094 C 591.640625 5.160156 569.296875 2.269531 546.921875 2.191406 C 504.230469 2.046875 461.269531 12.605469 425.390625 36.226562 C 394.15625 56.796875 368.355469 86.304688 353.941406 120.960938 C 338.765625 157.449219 338.199219 198.277344 352.320312 235.203125 C 359.441406 253.824219 369.992188 271.121094 383.460938 285.828125 C 397.265625 300.90625 414.179688 312.390625 431.492188 323.046875 C 449.296875 334.011719 467.707031 344.308594 483.714844 357.886719 C 499.980469 371.683594 512.328125 388.902344 520.679688 408.507812 C 538.484375 450.292969 538.464844 496.449219 540.574219 541.023438 C 541.71875 565.277344 543.5625 589.664062 549.332031 613.320312 C 553.894531 632.011719 561.058594 650.023438 570.390625 666.84375 C 588.882812 700.175781 615.628906 728.652344 646.8125 750.429688 C 681.386719 774.578125 721.390625 789.863281 762.90625 796.757812 C 807.847656 804.222656 854.121094 802.15625 898.605469 792.714844 C 941.496094 783.613281 984.214844 768.105469 1019.859375 742.082031 C 1052.644531 718.144531 1079.273438 684.382812 1089.941406 644.769531 C 1101.746094 600.914062 1090.15625 556.101562 1071.742188 515.863281 C 1052.386719 473.5625 1025.484375 435.210938 1006.671875 392.632812 C 997.304688 371.425781 989.894531 349.070312 987.273438 325.945312 C 984.558594 301.957031 988.011719 278.386719 994.042969 255.15625 C 999.5625 233.882812 1007.191406 213.035156 1011.1875 191.386719 C 1014.097656 175.613281 1015.09375 159.441406 1013.730469 143.449219 C 1011.1875 113.542969 1000.054688 83.6875 977.628906 63.015625 C 965.933594 52.234375 951.738281 44.519531 936.554688 39.910156 C 916.804688 33.914062 894.984375 30.90625 874.351562 31.550781 C 853.71875 32.191406 834.007812 37.574219 815.253906 45.878906 C 813.972656 46.445312 815.082031 48.324219 816.351562 47.761719 C 836.695312 38.753906 858.179688 33.457031 880.5 33.664062 C 891.160156 33.761719 901.777344 34.953125 912.273438 36.753906 C 922.121094 38.445312 931.976562 40.429688 941.40625 43.800781 C 971.558594 54.589844 993.855469 78.546875 1004.304688 108.617188 C 1014.808594 138.851562 1014.167969 172.433594 1006.371094 203.207031 C 1000.65625 225.757812 992.882812 247.757812 988.183594 270.570312 C 983.753906 292.066406 982.804688 313.753906 986.425781 335.441406 C 1001.484375 425.597656 1077.027344 492.285156 1090.808594 582.871094 C 1094.132812 604.730469 1093.046875 627.085938 1086.667969 648.296875 C 1080.601562 668.476562 1070.226562 687.261719 1057.113281 703.707031 C 1030.195312 737.457031 992.261719 760.300781 952.167969 775.09375 C 868.769531 805.871094 770.703125 809.867188 688.855469 772.066406 C 618.0625 739.375 562.105469 675.441406 548.277344 597.683594 C 540.148438 551.984375 544 505.167969 536.8125 459.363281 C 533.714844 439.625 528.65625 420.046875 520.105469 401.929688 C 511.441406 383.582031 499.046875 367.683594 483.390625 354.792969 C 452.445312 329.308594 413.464844 314.882812 385.828125 285.1875 C 357.957031 255.234375 342.382812 213.949219 344.273438 173.011719 C 346.046875 134.613281 363.453125 98.335938 389.078125 70.128906 C 416.21875 40.253906 452.046875 19.769531 491.265625 10.53125 C 535.351562 0.144531 581.851562 3.582031 625.265625 15.507812 C 667.910156 27.222656 708.453125 46.976562 752.648438 52.703125 C 773.960938 55.464844 795.539062 54.398438 816.097656 47.863281 C 817.429688 47.441406 816.859375 45.335938 815.519531 45.761719 Z M 815.515625 45.761719 " fill-opacity="1" fill-rule="nonzero"/></svg>