<svg xmlns="http://www.w3.org/2000/svg" xmlns:xlink="http://www.w3.org/1999/xlink" width="1920" zoomAndPan="magnify" viewBox="0 0 1440 809.999993" height="1080" preserveAspectRatio="xMidYMid meet" version="1.0"><path fill="#f4f4f4" d="M 1317.027344 94.011719 C 1313.136719 74.734375 1308.066406 55.625 1302.316406 36.683594 C 1299.101562 26.199219 1286.417969 25.015625 1280.332031 30.257812 C 1280.332031 30.257812 1280.160156 30.257812 1280.160156 30.429688 C 1220.972656 71.519531 1132.53125 53.089844 1078.925781 11.488281 C 1072.667969 6.585938 1062.519531 9.964844 1059.984375 17.40625 C 1047.640625 53.933594 1022.441406 85.558594 989.972656 106.019531 C 973.402344 116.503906 954.96875 124.113281 935.859375 128.339844 C 929.265625 129.863281 914.890625 128.847656 910.496094 134.261719 C 904.574219 141.699219 908.296875 155.230469 910.496094 163.347656 C 928.082031 224.730469 918.613281 288.148438 874.304688 336.34375 C 845.386719 367.964844 806.15625 388.425781 763.878906 394.683594 C 681.691406 407.027344 594.09375 365.089844 557.570312 289.332031 C 528.988281 230.144531 533.21875 159.457031 569.742188 104.835938 C 576.171875 95.195312 567.375 84.878906 558.414062 85.050781 C 557.230469 84.542969 555.878906 84.035156 554.523438 84.035156 C 512.925781 79.46875 476.058594 47 459.65625 9.628906 C 456.613281 2.863281 446.296875 0.160156 440.882812 5.570312 C 417.71875 28.566406 389.476562 46.324219 358.359375 56.640625 C 332.996094 64.925781 299.003906 68.984375 278.371094 48.183594 C 272.960938 42.773438 266.367188 42.605469 260.277344 46.664062 C 242.183594 58.667969 221.214844 65.265625 199.738281 67.460938 C 189.421875 68.476562 178.9375 68.140625 168.621094 66.957031 C 160.503906 65.941406 152.558594 63.574219 144.441406 63.066406 C 138.015625 60.53125 130.574219 62.390625 128.714844 70.84375 C 89.648438 236.0625 116.199219 413.457031 216.816406 552.292969 C 291.054688 654.601562 400.128906 728.5 520.027344 766.886719 C 639.921875 805.277344 771.65625 809.84375 893.414062 777.203125 C 954.125 760.96875 1012.296875 735.941406 1064.550781 700.9375 C 1090.929688 683.179688 1114.4375 662.886719 1138.113281 641.75 C 1149.949219 631.097656 1163.476562 622.132812 1174.640625 610.632812 C 1189.519531 595.414062 1202.878906 578.164062 1215.5625 561.085938 C 1313.8125 427.320312 1350.339844 256.015625 1317.027344 94.011719 Z M 205.65625 92.320312 C 227.640625 90.460938 248.441406 83.019531 267.382812 72.199219 C 319.972656 112.785156 398.609375 74.058594 445.113281 34.488281 C 465.914062 71.183594 500.070312 94.011719 540.65625 104.667969 C 486.035156 203.085938 519.6875 331.609375 618.445312 388.597656 C 701.648438 436.621094 812.074219 428.675781 881.578125 359.847656 C 921.824219 319.9375 946.007812 262.105469 941.949219 205.117188 C 941.777344 201.902344 935.015625 153.707031 933.15625 154.046875 C 996.230469 143.5625 1051.867188 99.929688 1077.570312 41.25 C 1108.011719 61.375 1143.355469 73.550781 1179.882812 76.085938 C 1190.703125 76.933594 1202.710938 77.101562 1215.054688 76.257812 C 1245.15625 136.457031 1264.773438 203.085938 1259.191406 271.066406 C 1254.457031 328.394531 1230.78125 386.058594 1188.675781 426.308594 C 1167.367188 446.601562 1143.015625 459.113281 1116.464844 471.121094 C 1088.734375 483.804688 1065.902344 499.867188 1049.839844 526.25 C 1034.109375 552.121094 1025.148438 581.546875 1009.421875 607.421875 C 994.539062 632.28125 975.429688 654.433594 952.941406 672.527344 C 901.699219 713.789062 831.519531 731.375 767.597656 712.4375 C 736.3125 703.136719 710.609375 684.027344 682.367188 668.300781 C 653.789062 652.402344 624.027344 645.300781 591.558594 642.933594 C 523.746094 638.027344 451.875 649.699219 390.320312 613.847656 C 365.125 599.132812 343.480469 578.671875 327.921875 553.984375 C 310.164062 526.082031 303.570312 494.964844 298.835938 462.835938 C 293.761719 429.519531 288.011719 399.25 268.394531 371.007812 C 250.640625 345.472656 227.472656 324.503906 212.253906 297.109375 C 176.738281 233.863281 175.21875 157.597656 205.65625 92.320312 Z M 1230.273438 494.289062 C 1209.304688 530.308594 1184.277344 562.609375 1157.222656 594.0625 C 1146.90625 605.898438 1138.113281 619.257812 1126.445312 629.742188 C 1115.113281 639.890625 1102.601562 649.019531 1090.425781 657.984375 C 1042.226562 693.328125 987.4375 720.554688 930.957031 739.664062 C 817.65625 778.21875 692.347656 782.277344 576.171875 754.542969 C 459.488281 726.640625 350.242188 666.101562 270.257812 575.796875 C 165.578125 457.761719 122.625 298.292969 142.582031 142.714844 C 144.949219 124.453125 148.160156 106.1875 152.050781 88.09375 C 163.042969 91.8125 175.554688 92.996094 187.222656 92.996094 C 162.027344 148.125 159.492188 213.910156 179.445312 270.898438 C 189.929688 300.832031 207.179688 326.703125 227.472656 350.714844 C 246.75 373.714844 265.859375 396.207031 272.960938 426.136719 C 281.078125 460.636719 281.925781 496.316406 294.777344 529.632812 C 305.429688 557.367188 322.511719 582.902344 344.15625 603.363281 C 395.734375 652.234375 462.023438 661.195312 530.34375 661.195312 C 566.871094 661.195312 605.59375 659.503906 640.769531 670.328125 C 672.730469 680.136719 699.109375 702.121094 728.703125 716.664062 C 788.230469 745.75 860.945312 743.042969 919.964844 714.296875 C 975.769531 687.238281 1017.371094 639.214844 1043.414062 583.746094 C 1057.449219 553.8125 1069.285156 521.175781 1098.203125 502.238281 C 1125.261719 484.480469 1156.882812 476.195312 1182.925781 456.410156 C 1235.011719 417.007812 1266.632812 354.4375 1276.273438 290.683594 C 1287.601562 215.9375 1266.972656 140.007812 1232.980469 73.550781 C 1250.90625 70.675781 1268.15625 64.925781 1281.683594 54.78125 C 1323.453125 202.070312 1307.21875 361.539062 1230.273438 494.289062 Z M 1230.273438 494.289062 " fill-opacity="1" fill-rule="nonzero"/><path fill="#f4f4f4" d="M 1054.234375 313.007812 C 1046.964844 325.351562 1064.550781 338.035156 1072.667969 325.859375 C 1078.417969 317.066406 1083.660156 308.101562 1088.734375 298.96875 C 1093.46875 290.515625 1098.878906 282.226562 1100.402344 272.589844 C 1101.753906 264.640625 1091.101562 259.566406 1085.351562 264.640625 C 1078.25 270.898438 1074.359375 279.691406 1069.453125 287.640625 C 1064.382812 296.09375 1059.308594 304.550781 1054.234375 313.007812 Z M 1054.234375 313.007812 " fill-opacity="1" fill-rule="nonzero"/><path fill="#f4f4f4" d="M 1003.839844 171.292969 C 1013.988281 176.875 1025.488281 178.902344 1036.816406 181.441406 C 1047.808594 183.808594 1058.96875 187.699219 1069.792969 183.808594 C 1074.191406 182.117188 1075.878906 175.015625 1072.328125 171.632812 C 1064.382812 164.023438 1054.234375 163.007812 1043.75 160.472656 C 1032.925781 157.765625 1021.429688 153.875 1010.097656 153.875 C 1001.980469 154.046875 994.539062 166.222656 1003.839844 171.292969 Z M 1003.839844 171.292969 " fill-opacity="1" fill-rule="nonzero"/><path fill="#f4f4f4" d="M 1138.28125 127.496094 C 1136.25 113.460938 1132.023438 98.917969 1123.398438 87.585938 C 1117.820312 80.144531 1108.347656 87.078125 1108.6875 94.519531 C 1109.195312 106.863281 1112.578125 119.546875 1115.621094 131.554688 C 1119.003906 145.929688 1140.308594 142.378906 1138.28125 127.496094 Z M 1138.28125 127.496094 " fill-opacity="1" fill-rule="nonzero"/><path fill="#f4f4f4" d="M 1205.585938 240.289062 C 1213.027344 233.355469 1213.535156 223.71875 1215.394531 214.246094 C 1217.421875 204.4375 1220.46875 194.632812 1219.285156 184.652344 C 1218.097656 175.859375 1205.246094 172.984375 1200.511719 180.425781 C 1195.269531 188.882812 1194.085938 199.027344 1191.71875 208.667969 C 1189.519531 218.304688 1185.96875 227.269531 1189.859375 236.738281 C 1192.226562 242.828125 1200.851562 244.519531 1205.585938 240.289062 Z M 1205.585938 240.289062 " fill-opacity="1" fill-rule="nonzero"/><path fill="#f4f4f4" d="M 961.566406 427.320312 C 978.8125 414.976562 995.21875 400.773438 1006.039062 382.507812 C 1010.265625 375.40625 1001.980469 367.121094 995.214844 372.699219 C 979.320312 385.382812 964.777344 399.757812 948.375 411.933594 C 937.890625 419.710938 951.078125 434.761719 961.566406 427.320312 Z M 961.566406 427.320312 " fill-opacity="1" fill-rule="nonzero"/><path fill="#f4f4f4" d="M 969.851562 283.414062 C 972.894531 292.375 974.753906 303.027344 982.871094 308.777344 C 987.269531 311.820312 995.386719 310.300781 996.738281 304.382812 C 999.105469 294.402344 994.539062 286.792969 990.820312 277.492188 C 986.761719 267.683594 981.855469 258.722656 977.121094 249.421875 C 973.234375 241.644531 959.535156 245.195312 961.902344 254.324219 C 964.609375 264.132812 966.636719 273.773438 969.851562 283.414062 Z M 969.851562 283.414062 " fill-opacity="1" fill-rule="nonzero"/><path fill="#f4f4f4" d="M 1100.570312 404.492188 C 1119.511719 409.566406 1139.464844 414.808594 1159.082031 414.976562 C 1168.550781 415.144531 1171.425781 402.972656 1162.800781 399.082031 C 1145.046875 390.796875 1124.753906 386.90625 1105.472656 383.523438 C 1093.46875 381.324219 1088.734375 401.28125 1100.570312 404.492188 Z M 1100.570312 404.492188 " fill-opacity="1" fill-rule="nonzero"/><path fill="#f4f4f4" d="M 832.199219 484.480469 C 840.992188 480.929688 846.910156 470.445312 852.828125 463.34375 C 859.085938 455.902344 865.851562 448.96875 867.710938 439.160156 C 869.230469 431.550781 860.609375 428.167969 854.6875 430.027344 C 845.558594 433.070312 839.132812 442.371094 833.042969 449.476562 C 826.617188 456.914062 818.839844 463.847656 816.976562 473.828125 C 815.625 482.28125 825.433594 487.1875 832.199219 484.480469 Z M 832.199219 484.480469 " fill-opacity="1" fill-rule="nonzero"/><path fill="#f4f4f4" d="M 912.523438 580.53125 C 914.046875 596.261719 937.382812 591.695312 936.367188 576.304688 C 935.691406 567.34375 935.015625 558.550781 934 549.585938 C 933.15625 541.132812 932.816406 532.335938 928.082031 525.066406 C 924.191406 518.808594 915.230469 518.300781 912.015625 525.742188 C 908.464844 534.199219 909.648438 542.992188 910.15625 551.953125 C 910.832031 561.421875 911.679688 570.894531 912.523438 580.53125 Z M 912.523438 580.53125 " fill-opacity="1" fill-rule="nonzero"/><path fill="#f4f4f4" d="M 745.109375 606.40625 C 752.886719 610.125 760.496094 614.183594 768.105469 618.074219 C 775.546875 621.796875 782.820312 627.207031 790.765625 629.742188 C 801.082031 632.957031 811.398438 620.609375 803.449219 611.648438 C 791.273438 598.121094 769.796875 590.679688 752.71875 585.773438 C 739.1875 581.886719 732.425781 600.488281 745.109375 606.40625 Z M 745.109375 606.40625 " fill-opacity="1" fill-rule="nonzero"/><path fill="#f4f4f4" d="M 681.015625 538.933594 C 692.007812 537.242188 695.898438 525.234375 700.800781 516.441406 C 706.042969 507.140625 711.117188 498.007812 713.484375 487.523438 C 715.34375 479.746094 707.566406 473.320312 700.632812 478.5625 C 691.671875 485.15625 685.242188 494.121094 679.324219 503.421875 C 673.574219 512.550781 665.121094 522.191406 670.023438 533.351562 C 671.882812 537.410156 676.621094 539.609375 681.015625 538.933594 Z M 681.015625 538.933594 " fill-opacity="1" fill-rule="nonzero"/><path fill="#f4f4f4" d="M 535.921875 435.777344 C 542.855469 442.203125 549.789062 448.96875 557.230469 454.546875 C 568.558594 463.171875 584.625 446.261719 574.308594 435.777344 C 567.714844 429.011719 560.273438 422.925781 553.003906 416.835938 C 545.898438 410.917969 538.628906 405.167969 530.003906 401.785156 C 522.5625 398.910156 514.277344 407.367188 518.167969 414.640625 C 522.730469 423.09375 529.160156 429.519531 535.921875 435.777344 Z M 535.921875 435.777344 " fill-opacity="1" fill-rule="nonzero"/><path fill="#f4f4f4" d="M 463.546875 500.039062 C 454.75 503.757812 449.507812 513.566406 444.941406 521.515625 C 439.871094 530.476562 434.796875 539.777344 430.90625 549.25 C 424.820312 564.296875 447.3125 571.910156 454.242188 557.871094 C 458.640625 549.078125 462.53125 539.945312 466.925781 530.984375 C 470.984375 522.867188 475.550781 514.917969 474.707031 505.617188 C 474.367188 500.546875 467.941406 498.347656 463.546875 500.039062 Z M 463.546875 500.039062 " fill-opacity="1" fill-rule="nonzero"/><path fill="#f4f4f4" d="M 372.566406 425.632812 C 364.449219 423.261719 356.5 420.726562 348.382812 418.527344 C 333.164062 414.46875 324.199219 436.960938 339.757812 441.863281 C 347.875 444.402344 355.992188 446.601562 364.109375 448.96875 C 371.890625 451.167969 380.34375 454.71875 388.460938 452.6875 C 395.5625 450.996094 400.128906 442.035156 394.550781 435.945312 C 388.292969 429.691406 380.683594 428 372.566406 425.632812 Z M 372.566406 425.632812 " fill-opacity="1" fill-rule="nonzero"/><path fill="#f4f4f4" d="M 399.285156 341.246094 C 407.230469 339.554688 415.011719 337.695312 422.621094 335.160156 C 429.722656 332.792969 438.6875 329.917969 443.757812 324.335938 C 449.679688 317.910156 448.664062 303.367188 437.332031 303.703125 C 429.046875 303.875 421.777344 307.257812 413.996094 310.300781 C 406.554688 313.175781 399.453125 316.21875 392.011719 318.925781 C 379.5 323.320312 386.261719 343.953125 399.285156 341.246094 Z M 399.285156 341.246094 " fill-opacity="1" fill-rule="nonzero"/><path fill="#f4f4f4" d="M 266.367188 283.242188 C 274.144531 287.976562 282.769531 286.625 291.394531 286.457031 C 300.1875 286.285156 308.304688 286.625 315.914062 281.550781 C 321.324219 278 319.972656 269.039062 315.238281 265.824219 C 308.304688 261.257812 300.355469 261.597656 292.410156 261.429688 C 284.628906 261.257812 274.992188 259.566406 268.058594 263.796875 C 261.292969 267.855469 258.417969 278.507812 266.367188 283.242188 Z M 266.367188 283.242188 " fill-opacity="1" fill-rule="nonzero"/><path fill="#f4f4f4" d="M 463.207031 230.820312 C 472.847656 218.136719 486.375 203.253906 488.910156 187.191406 C 489.925781 180.933594 481.976562 175.015625 476.398438 178.398438 C 462.53125 187.019531 453.058594 204.101562 442.746094 216.613281 C 432.765625 228.960938 453.398438 243.671875 463.207031 230.820312 Z M 463.207031 230.820312 " fill-opacity="1" fill-rule="nonzero"/><path fill="#f4f4f4" d="M 327.921875 143.054688 C 336.546875 146.4375 346.183594 147.957031 355.148438 149.988281 C 364.277344 152.015625 373.074219 154.554688 382.375 153.367188 C 391.167969 152.183594 393.703125 139.671875 386.433594 134.765625 C 378.652344 129.523438 369.523438 128.003906 360.558594 125.804688 C 351.425781 123.605469 342.296875 120.730469 332.996094 120.054688 C 319.636719 118.871094 315.40625 138.148438 327.921875 143.054688 Z M 327.921875 143.054688 " fill-opacity="1" fill-rule="nonzero"/><path fill="#f4f4f4" d="M 220.539062 182.117188 C 225.613281 185.667969 234.234375 184.824219 237.617188 179.074219 C 241.167969 173.15625 244.382812 166.898438 247.425781 160.640625 C 250.46875 154.554688 252.160156 148.125 254.699219 141.871094 C 258.585938 132.398438 245.058594 125.972656 239.308594 133.753906 C 235.417969 138.824219 231.023438 143.390625 227.472656 148.632812 C 223.921875 153.875 220.539062 159.289062 217.496094 164.867188 C 214.28125 170.785156 214.621094 177.890625 220.539062 182.117188 Z M 220.539062 182.117188 " fill-opacity="1" fill-rule="nonzero"/></svg>